Coordinates
version=1
nRows=29
nColumns=24
inDegrees=yes

Units are S.I. units (second, meters, Newtons, ...)
Angles are in degrees.

endheader
time	pelvis_tilt	pelvis_list	pelvis_rotation	pelvis_tx	pelvis_ty	pelvis_tz	hip_flexion_r	hip_adduction_r	hip_rotation_r	knee_angle_r	ankle_angle_r	subtalar_angle_r	mtp_angle_r	hip_flexion_l	hip_adduction_l	hip_rotation_l	knee_angle_l	ankle_angle_l	subtalar_angle_l	mtp_angle_l	lumbar_extension	lumbar_bending	lumbar_rotation
      4.34000000	     10.77036827	      7.17199069	    -10.38456220	      0.19798107	      0.92549717	     -0.22430052	     -7.53831781	    -11.82275473	      0.84246288	    -62.88591080	     10.84938190	     -3.40855040	      0.00000000	     -0.87530872	     11.41079609	      4.97648365	    -17.05950043	     16.45578623	     -8.35085516	      0.00000000	    -22.33849750	    -16.21410059	      2.68295474
      4.34500000	     10.74336496	      6.77884183	    -10.18748167	      0.20498039	      0.92681110	     -0.22461698	     -6.66503566	    -11.21557169	      0.73499860	    -63.14903421	     11.77653456	     -3.74863969	      0.00000000	     -1.67426907	     11.06631539	      5.32626458	    -16.53203051	     16.61777123	     -8.38341814	      0.00000000	    -22.34753149	    -15.68876352	      2.53354821
      4.35000000	     10.69236815	      6.38286651	     -9.79327672	      0.21187625	      0.92808964	     -0.22509592	     -5.82653347	    -10.57333155	      0.40029229	    -63.30986964	     12.63413221	     -4.22167254	      0.00000000	     -2.42711674	     10.68791437	      5.79628780	    -16.06285176	     16.78210189	     -8.31006688	      0.00000000	    -22.40573224	    -15.09068044	      2.14218377
      4.35500000	     10.64746735	      5.97564643	     -9.46330089	      0.21879143	      0.92933445	     -0.22554706	     -4.98484597	     -9.94130028	      0.12058147	    -63.39415390	     13.49313932	     -4.55145070	      0.00000000	     -3.19924348	     10.29515685	      6.21497463	    -15.54319153	     16.91384373	     -8.29001447	      0.00000000	    -22.43779714	    -14.49801099	      1.83681964
      4.36000000	     10.59143172	      5.56587740	     -9.11587981	      0.22568620	      0.93052802	     -0.22599938	     -4.14041234	     -9.30597228	     -0.18337494	    -63.40085463	     14.31251835	     -4.85540726	      0.00000000	     -3.95772210	      9.88175512	      6.60751532	    -15.01139432	     17.03361097	     -8.23900438	      0.00000000	    -22.45771828	    -13.89434068	      1.52345714
      4.36500000	     10.53411417	      5.17085236	     -8.67574007	      0.23265356	      0.93170357	     -0.22650004	     -3.33880060	     -8.68503083	     -0.59921395	    -63.30132413	     15.06922904	     -5.13841111	      0.00000000	     -4.72752399	      9.45929459	      7.06753027	    -14.45363439	     17.12398405	     -8.15045779	      0.00000000	    -22.47631915	    -13.28378345	      1.07184187
      4.37000000	     10.47353893	      4.75961577	     -8.28915396	      0.23948620	      0.93279299	     -0.22698258	     -2.50917780	     -8.05960782	     -0.96232575	    -63.15078831	     15.80874023	     -5.38366909	      0.00000000	     -5.46983041	      9.01559044	      7.45567040	    -13.90941810	     17.22896355	     -8.07686815	      0.00000000	    -22.49899114	    -12.66280509	      0.70982486
      4.37500000	     10.41274260	      4.35830508	     -7.84212769	      0.24631505	      0.93384654	     -0.22752136	     -1.70475845	     -7.45325569	     -1.40101788	    -62.91131443	     16.51352907	     -5.58850224	      0.00000000	     -6.20809550	      8.56257310	      7.87124440	    -13.35712024	     17.28705460	     -7.97472164	      0.00000000	    -22.53067043	    -12.03418571	      0.28036576
      4.38000000	     10.35205812	      3.95849734	     -7.39819754	      0.25310513	      0.93483190	     -0.22805923	     -0.90228235	     -6.85789644	     -1.83759805	    -62.60218309	     17.18022169	     -5.75825876	      0.00000000	     -6.93635517	      8.10026492	      8.26129513	    -12.80164503	     17.34394892	     -7.87220791	      0.00000000	    -22.56057795	    -11.40623880	     -0.14144863
      4.38500000	     10.27368716	      3.55334971	     -6.99247590	      0.25982970	      0.93571353	     -0.22857343	     -0.07261879	     -6.26632391	     -2.23510524	    -62.23240530	     17.82489840	     -5.89172895	      0.00000000	     -7.62819405	      7.62678117	      8.59346229	    -12.25568544	     17.43179820	     -7.77878327	      0.00000000	    -22.57251059	    -10.77649969	     -0.50092832
      4.39000000	     10.21187232	      3.17909820	     -6.47632822	      0.26663761	      0.93658825	     -0.22912664	      0.69502182	     -5.71599737	     -2.75226211	    -61.76687515	     18.38345280	     -6.00661345	      0.00000000	     -8.34536252	      7.15300946	      9.00941475	    -11.68536555	     17.45756436	     -7.62701349	      0.00000000	    -22.59221039	    -10.15895151	     -1.03491330
      4.39500000	     10.16462676	      2.80227893	     -5.97696857	      0.27336172	      0.93739753	     -0.22970421	      1.44767706	     -5.18168228	     -3.25259412	    -61.23472707	     18.94144577	     -6.06578701	      0.00000000	     -9.05711694	      6.67472695	      9.39575509	    -11.12980978	     17.47589537	     -7.50854767	      0.00000000	    -22.64162040	     -9.53546690	     -1.52425344
      4.40000000	     10.10860752	      2.43478692	     -5.48770756	      0.28006757	      0.93812003	     -0.23025444	      2.20555273	     -4.66500411	     -3.73426857	    -60.63859609	     19.45779543	     -6.09902341	      0.00000000	     -9.74848007	      6.19473306	      9.74808880	    -10.57443241	     17.50267987	     -7.37343826	      0.00000000	    -22.67455808	     -8.92501460	     -2.00368023
      4.40500000	     10.05334623	      2.08108844	     -4.98076619	      0.28674288	      0.93877496	     -0.23080904	      2.95094689	     -4.17321709	     -4.22308033	    -59.97400428	     19.94111634	     -6.09750561	      0.00000000	    -10.42535615	      5.71601650	     10.09718912	    -10.02768656	     17.51991879	     -7.23268340	      0.00000000	    -22.70990841	     -8.32467438	     -2.50212894
      4.41000000	      9.99000336	      1.73230433	     -4.49309752	      0.29339807	      0.93932478	     -0.23134909	      3.69993453	     -3.69858352	     -4.68578957	    -59.25045596	     20.41348910	     -6.05792388	      0.00000000	    -11.08028434	      5.23839661	     10.42253216	     -9.49163326	     17.57260769	     -7.10472607	      0.00000000	    -22.73103052	     -7.73356032	     -2.96812299
      4.41500000	      9.95296033	      1.41489526	     -3.94319390	      0.30002835	      0.93986733	     -0.23192726	      4.39737168	     -3.27444369	     -5.20060186	    -58.44973992	     20.82006220	     -5.98267041	      0.00000000	    -11.74833309	      4.77016044	     10.78006271	     -8.95909714	     17.54106397	     -6.94591076	      0.00000000	    -22.78900384	     -7.15979002	     -3.53972047
      4.42000000	      9.91463573	      1.10523482	     -3.41685210	      0.30664824	      0.94031596	     -0.23246915	      5.08817629	     -2.86782810	     -5.67707298	    -57.59162177	     21.21348000	     -5.87073647	      0.00000000	    -12.40354652	      4.30663053	     11.10948948	     -8.43491645	     17.54652566	     -6.80293296	      0.00000000	    -22.83937086	     -6.59991869	     -4.07207728
      4.42500000	      9.87618472	      0.81372467	     -2.88622658	      0.31324592	      0.94068897	     -0.23300403	      5.76708395	     -2.49236735	     -6.14118972	    -56.67456804	     21.57731961	     -5.72207876	      0.00000000	    -13.04233959	      3.85232104	     11.42880948	     -7.92580008	     17.54453554	     -6.65453783	      0.00000000	    -22.88889353	     -6.05958625	     -4.61358663
      4.43000000	      9.83983560	      0.54299835	     -2.35056292	      0.31982409	      0.94098780	     -0.23352819	      6.42900438	     -2.15034854	     -6.59268542	    -55.69712359	     21.91744406	     -5.54351958	      0.00000000	    -13.66725453	      3.41064064	     11.73902325	     -7.43266282	     17.54690402	     -6.50630033	      0.00000000	    -22.93791543	     -5.53862782	     -5.16371163
      4.43500000	      9.79688497	      0.28905380	     -1.81982133	      0.32636012	      0.94120286	     -0.23403875	      7.08647261	     -1.83515786	     -7.01431020	    -54.66410053	     22.23980965	     -5.33316295	      0.00000000	    -14.26556329	      2.98047794	     12.03402206	     -6.96173002	     17.55162367	     -6.35462079	      0.00000000	    -22.98396920	     -5.03874853	     -5.70209056
      4.44000000	      9.75900774	      0.06003079	     -1.28100305	      0.33287616	      0.94135142	     -0.23454393	      7.72101403	     -1.55881162	     -7.42351439	    -53.57325555	     22.53393511	     -5.09173313	      0.00000000	    -14.85257241	      2.56770157	     12.32629755	     -6.50987438	     17.55246893	     -6.20179627	      0.00000000	    -23.03254459	     -4.56196666	     -6.25947041
      4.44500000	      9.73717531	     -0.14446597	     -0.72140229	      0.33939607	      0.94145485	     -0.23506371	      8.31392053	     -1.32659925	     -7.83971875	    -52.42317045	     22.78527767	     -4.81747593	      0.00000000	    -15.44384930	      2.16864651	     12.62446125	     -6.07160285	     17.54902623	     -6.05061002	      0.00000000	    -23.09786765	     -4.10457306	     -6.85546930
      4.45000000	      9.70452761	     -0.32835371	     -0.18281150	      0.34586555	      0.94146622	     -0.23553809	      8.90610256	     -1.11874814	     -8.19973877	    -51.22291342	     23.03656261	     -4.52339654	      0.00000000	    -16.00168730	      1.78986775	     12.89438465	     -5.66506516	     17.55137161	     -5.89632312	      0.00000000	    -23.15633157	     -3.67459476	     -7.41722776
      4.45500000	      9.67064946	     -0.48677773	      0.36394182	      0.35232272	      0.94141167	     -0.23600261	      9.47627387	     -0.94887909	     -8.54195185	    -49.96675781	     23.25898044	     -4.20540434	      0.00000000	    -16.54064086	      1.42947866	     13.16312265	     -5.28497476	     17.55984336	     -5.73751772	      0.00000000	    -23.21288046	     -3.27125934	     -7.99326312
      4.46000000	      9.64326408	     -0.61947208	      0.91842091	      0.35876663	      0.94129867	     -0.23647169	     10.01392059	     -0.81955547	     -8.87009953	    -48.65529956	     23.45721543	     -3.86875227	      0.00000000	    -17.06987913	      1.08921472	     13.43113696	     -4.92974137	     17.57698437	     -5.58053554	      0.00000000	    -23.27703542	     -2.89139485	     -8.58237684
      4.46500000	      9.61576531	     -0.73082027	      1.47371007	      0.36519171	      0.94111509	     -0.23691195	     10.52701683	     -0.72052720	     -9.17123403	    -47.29104487	     23.64516861	     -3.51573662	      0.00000000	    -17.58069802	      0.76431344	     13.69245729	     -4.60489413	     17.60585139	     -5.42174997	      0.00000000	    -23.34396308	     -2.53867258	     -9.16732008
      4.47000000	      9.58454717	     -0.81251379	      2.02061743	      0.37159498	      0.94087379	     -0.23735070	     11.01936430	     -0.66173460	     -9.43146807	    -45.87700404	     23.79252772	     -3.15055064	      0.00000000	    -18.06907608	      0.46968230	     13.94386584	     -4.31376196	     17.62293608	     -5.24920569	      0.00000000	    -23.40830868	     -2.20848968	     -9.75772584
      4.47500000	      9.52985412	     -0.87769471	      2.53720604	      0.37802856	      0.94052031	     -0.23773562	     11.50922731	     -0.62527571	     -9.64439655	    -44.41395812	     23.96343859	     -2.76832498	      0.00000000	    -18.52345916	      0.19744981	     14.16517070	     -4.04823586	     17.68762216	     -5.08222747	      0.00000000	    -23.43927442	     -1.91554689	    -10.29032232
      4.48000000	      9.44197069	     -0.91877606	      3.00785180	      0.38444797	      0.94008626	     -0.23809234	     12.01933080	     -0.61857780	     -9.76637994	    -42.92378769	     24.03944560	     -2.31593553	      0.00000000	    -18.93345968	     -0.03505474	     14.31890481	     -3.80215545	     17.70948753	     -4.90477706	      0.00000000	    -23.43309643	     -1.65166135	    -10.77491095
